<?xml version="1.0" encoding="utf-8"?>
<!-- Generator: Adobe Illustrator 16.0.0, SVG Export Plug-In . SVG Version: 6.00 Build 0)  -->
<!DOCTYPE svg PUBLIC "-//W3C//DTD SVG 1.1//EN" "http://www.w3.org/Graphics/SVG/1.1/DTD/svg11.dtd">
<svg version="1.1" id="Layer_1" xmlns="http://www.w3.org/2000/svg" xmlns:xlink="http://www.w3.org/1999/xlink" x="0px" y="0px"
	 width="300px" height="300px" viewBox="0 0 300 300" enable-background="new 0 0 300 300" xml:space="preserve">
<g>
	<g>
		<path fill-rule="evenodd" clip-rule="evenodd" fill="#8B2442" d="M235.893,179.051c0-41.729-31.944-52.711-66.445-58.111V71.183
			c12.729,3.44,23.975,10.291,28.91,18.459l29.588-13.713c-12.328-25.232-33.699-34.008-56.986-37.574v-23.86h-34.795v0.019h-0.728
			v23.939c-31.537,4.002-62.835,20.473-62.835,56.126c0,39.789,29.297,50.04,62.835,54.921v57.758
			c-17.412-3.75-33.281-13.543-38.999-27.11l-32.329,13.713c12.775,29.929,40.922,43.928,71.328,46.825v12.958H121.73l31.809,31.859
			l31.809-31.859h-14.389v-14.256C204.932,236.92,235.893,216.076,235.893,179.051z M198.357,179.051
			c0,15.826-12.45,24.591-28.91,28.084v-52.48C186.071,158.671,198.357,165.748,198.357,179.051z M108.493,94.58
			c0-14.33,11.603-21.628,26.943-24.41v45.962C120.145,113.164,108.493,107.858,108.493,94.58z"/>
	</g>
</g>
</svg>
