<svg xmlns="http://www.w3.org/2000/svg" xmlns:xlink="http://www.w3.org/1999/xlink" version="1.1" id="logo-white" x="0px" y="0px" width="130px" height="136px" viewBox="0 0 130 136" enable-background="new 0 0 130 136" xml:space="preserve">
  <g>
    <path fill="#FFFFFF" d="M0 135.858v-8.914h2.217 0.223c0.778 0 1.417 0.214 1.918 0.641 0.505 0.422 0.757 0.977 0.757 1.666 0 0.772-0.319 1.391-0.957 1.852 0.971 0.453 1.455 1.197 1.455 2.229 0 0.758-0.266 1.37-0.797 1.835 -0.528 0.462-1.273 0.691-2.234 0.691H2.258 0zM0.892 130.78h1.325c1.338 0 2.005-0.51 2.005-1.529 0-0.481-0.183-0.851-0.55-1.109 -0.364-0.262-0.853-0.393-1.466-0.393H0.892V130.78zM0.892 135.057h1.284 0.276c0.837 0 1.422-0.164 1.759-0.492 0.341-0.328 0.511-0.748 0.511-1.257 0-0.539-0.201-0.961-0.604-1.266 -0.402-0.306-1.018-0.458-1.842-0.458h-0.41H0.892V135.057z"/>
    <path fill="#FFFFFF" d="M15.486 131.474c0-1.322 0.46-2.431 1.379-3.327 0.923-0.895 2.034-1.341 3.336-1.341 1.274 0 2.379 0.447 3.314 1.348 0.935 0.899 1.401 1.981 1.401 3.249 0 1.248-0.467 2.326-1.401 3.236 -0.936 0.907-2.04 1.361-3.314 1.361 -1.302 0-2.413-0.45-3.336-1.348C15.946 133.747 15.486 132.689 15.486 131.474M16.378 131.461c0 1.005 0.373 1.879 1.12 2.621 0.747 0.744 1.647 1.115 2.703 1.115 1.053 0 1.951-0.37 2.698-1.108 0.751-0.743 1.127-1.64 1.127-2.687 0-1.044-0.389-1.938-1.163-2.679 -0.771-0.744-1.657-1.114-2.662-1.114 -1.056 0-1.956 0.376-2.703 1.129C16.751 129.49 16.378 130.396 16.378 131.461"/>
    <polygon fill="#FFFFFF" points="35.087 126.944 40.108 126.944 40.108 127.749 38.044 127.749 38.044 135.859 37.153 135.859 37.153 127.749 35.087 127.749 "/>
    <path fill="#FFFFFF" d="M55.104 133.372c0 0.502 0.164 0.931 0.493 1.291 0.331 0.355 0.777 0.533 1.336 0.533 0.485 0 0.911-0.157 1.279-0.476 0.367-0.319 0.552-0.761 0.552-1.325 0-0.394-0.138-0.751-0.411-1.066 -0.273-0.32-0.86-0.607-1.759-0.861 -1.401-0.396-2.101-1.161-2.101-2.294 0-0.701 0.243-1.27 0.728-1.707 0.489-0.441 1.089-0.663 1.801-0.663 0.701 0 1.281 0.239 1.747 0.717 0.466 0.477 0.698 1.051 0.698 1.724h-0.892c0-0.446-0.156-0.828-0.47-1.148 -0.309-0.324-0.68-0.488-1.113-0.488 -0.492 0-0.884 0.155-1.173 0.464 -0.29 0.309-0.436 0.678-0.436 1.108 0 0.376 0.13 0.688 0.388 0.939 0.263 0.245 0.806 0.479 1.631 0.703 1.501 0.406 2.252 1.271 2.252 2.593 0 0.73-0.266 1.345-0.798 1.84 -0.531 0.497-1.173 0.745-1.924 0.745 -0.789 0-1.439-0.241-1.952-0.727 -0.513-0.484-0.77-1.117-0.77-1.901H55.104z"/>
    <polygon fill="#FFFFFF" points="71.162 126.944 72.056 126.944 72.056 130.875 76.606 130.875 76.606 126.944 77.497 126.944 77.497 135.859 76.606 135.859 76.606 131.679 72.056 131.679 72.056 135.859 71.162 135.859 "/>
    <path fill="#FFFFFF" d="M87.01 131.474c0-1.322 0.459-2.431 1.379-3.327 0.923-0.895 2.034-1.341 3.336-1.341 1.275 0 2.379 0.447 3.314 1.348 0.935 0.899 1.402 1.981 1.402 3.249 0 1.248-0.468 2.326-1.402 3.236C94.104 135.546 93 136 91.725 136c-1.302 0-2.413-0.45-3.336-1.348C87.469 133.747 87.01 132.689 87.01 131.474M87.9 131.461c0 1.005 0.374 1.879 1.121 2.621 0.747 0.744 1.647 1.115 2.703 1.115 1.053 0 1.952-0.37 2.697-1.108 0.752-0.743 1.127-1.64 1.127-2.687 0-1.044-0.387-1.938-1.162-2.679 -0.77-0.744-1.656-1.114-2.662-1.114 -1.056 0-1.956 0.376-2.703 1.129C88.274 129.49 87.9 130.396 87.9 131.461"/>
    <path fill="#FFFFFF" d="M112.511 133.56h0.997c-1.036 1.627-2.385 2.44-4.047 2.44 -1.307 0-2.421-0.442-3.343-1.325 -0.924-0.884-1.383-1.95-1.383-3.201 0-1.322 0.454-2.431 1.364-3.327 0.915-0.895 2.021-1.343 3.314-1.343 0.841 0 1.628 0.226 2.364 0.676 0.734 0.449 1.28 1.037 1.636 1.765h-0.997c-0.337-0.489-0.784-0.883-1.344-1.186 -0.559-0.299-1.109-0.451-1.653-0.451 -1.048 0-1.943 0.379-2.686 1.131 -0.737 0.752-1.108 1.658-1.108 2.723 0 1.005 0.379 1.879 1.138 2.621 0.762 0.744 1.666 1.114 2.708 1.114C110.642 135.196 111.654 134.65 112.511 133.56"/>
    <polygon fill="#FFFFFF" points="123.443 135.858 123.443 126.944 124.336 126.944 124.336 132.101 128.452 126.944 129.59 126.944 126.029 131.332 129.59 135.858 128.481 135.858 125.473 131.994 124.336 133.42 124.336 135.858 "/>
  </g>
  <g>
    <path fill="#FFFFFF" d="M24.794 0v47.193c0 20.407 15.365 37.284 35.133 39.695v18.363h9.737V86.888c19.766-2.411 35.133-19.288 35.133-39.695V0H24.794zM97.053 47.193c0 17.787-14.471 32.257-32.258 32.257S32.538 64.979 32.538 47.193V7.744h64.515V47.193z"/>
    <g>
      <path fill="#FFFFFF" d="M50.521 47.271c0.069-0.008 0.138-0.017 0.206-0.026 0.248-0.035 0.494-0.077 0.737-0.126 0.011-0.002 0.021-0.005 0.031-0.007 0.234-0.049 0.465-0.106 0.693-0.168 0.062-0.017 0.124-0.035 0.186-0.052 0.191-0.056 0.38-0.115 0.566-0.178 0.049-0.018 0.1-0.033 0.149-0.051 0.474-0.169 0.933-0.366 1.377-0.589 0.041-0.021 0.082-0.042 0.123-0.063 0.199-0.102 0.396-0.21 0.589-0.324 0.021-0.012 0.042-0.023 0.063-0.036 0.443-0.263 0.866-0.554 1.271-0.868 0.018-0.015 0.036-0.029 0.055-0.043 0.614-0.483 1.181-1.023 1.692-1.612 0.003-0.003 0.005-0.006 0.008-0.009 1.872-2.16 3.01-4.974 3.01-8.05 0-6.785-5.521-12.305-12.305-12.305 -6.785 0-12.305 5.52-12.305 12.305 0 1.784 0.384 3.478 1.069 5.01 0.025 0.054 0.049 0.108 0.074 0.163 0.116 0.249 0.238 0.494 0.369 0.734 0.018 0.031 0.036 0.06 0.053 0.09 0.122 0.218 0.251 0.432 0.386 0.642 0.03 0.046 0.059 0.092 0.089 0.137 0.15 0.226 0.306 0.446 0.47 0.661 0.03 0.041 0.063 0.08 0.094 0.121 0.151 0.193 0.308 0.382 0.469 0.565 0.027 0.032 0.055 0.064 0.083 0.095 0.18 0.201 0.368 0.394 0.562 0.583 0.042 0.042 0.086 0.082 0.129 0.124 0.188 0.178 0.381 0.353 0.58 0.519 0.014 0.011 0.026 0.023 0.04 0.035 0.21 0.173 0.427 0.338 0.648 0.499 0.051 0.036 0.102 0.073 0.152 0.108 0.224 0.157 0.45 0.308 0.684 0.449 0.02 0.012 0.04 0.022 0.06 0.034 0.22 0.131 0.444 0.255 0.674 0.373 0.053 0.028 0.107 0.057 0.161 0.083 0.244 0.121 0.49 0.235 0.742 0.34 0.043 0.018 0.087 0.034 0.131 0.051 0.226 0.092 0.456 0.176 0.689 0.254 0.05 0.017 0.101 0.035 0.153 0.052 0.261 0.083 0.524 0.158 0.793 0.224 0.058 0.015 0.116 0.026 0.174 0.04 0.248 0.057 0.497 0.108 0.75 0.15 0.036 0.006 0.072 0.013 0.109 0.02 0.278 0.043 0.559 0.075 0.843 0.101 0.066 0.006 0.132 0.011 0.198 0.015 0.29 0.021 0.582 0.035 0.877 0.035 0.257 0 0.511-0.01 0.764-0.026 0.074-0.004 0.146-0.011 0.221-0.017C50.146 47.314 50.335 47.296 50.521 47.271z"/>
      <path fill="#FFFFFF" d="M92.923 43.693c0-8.002-6.511-14.514-14.515-14.514 -6.541 0-12.082 4.349-13.89 10.306h-0.003c0 0-0.296 1.043-0.725 2.042l-0.004-0.001c-2.497 5.708-8.195 9.708-14.814 9.708 -4.924 0-9.338-2.215-12.305-5.7v1.112c0 15.535 12.594 28.128 28.127 28.128s28.128-12.593 28.128-28.128v-2.661l-0.008-0.001C92.917 43.887 92.923 43.791 92.923 43.693z"/>
    </g>
  </g>
</svg>
