<?xml version="1.0" standalone="no"?>
<!DOCTYPE svg PUBLIC "-//W3C//DTD SVG 20010904//EN"
 "http://www.w3.org/TR/2001/REC-SVG-20010904/DTD/svg10.dtd">
<svg version="1.0" xmlns="http://www.w3.org/2000/svg"
 width="480.000000pt" height="480.000000pt" viewBox="0 0 480.000000 480.000000"
 preserveAspectRatio="xMidYMid meet">
<metadata>
Created by potrace 1.11, written by Peter Selinger 2001-2013
</metadata>
<g transform="translate(0.000000,480.000000) scale(0.100000,-0.100000)"
fill="#000000" stroke="none">
<path d="M659 4699 c-11 -6 -6 -2253 4 -2309 44 -227 80 -344 153 -495 52
-110 93 -184 117 -209 9 -11 17 -23 17 -28 0 -4 7 -16 15 -25 8 -10 34 -44 58
-75 241 -314 643 -564 1022 -634 50 -9 101 -19 115 -23 l25 -8 0 -390 c0 -215
3 -395 7 -398 6 -6 311 -10 403 -6 20 1 20 8 20 399 l0 399 111 21 c687 131
1246 675 1384 1344 10 51 22 109 26 128 10 47 17 2310 7 2311 -46 4 -3477 2
-3484 -2z m3144 -338 c4 -1 6 -432 4 -958 -4 -1047 -1 -990 -63 -1188 -131
-410 -441 -740 -842 -894 -85 -32 -217 -67 -294 -77 -24 -3 -54 -7 -68 -10
-33 -5 -248 -6 -280 0 -14 3 -44 7 -67 10 -23 3 -72 12 -110 21 -37 9 -75 18
-83 20 -36 8 -161 59 -232 95 -273 138 -491 356 -628 630 -69 137 -107 256
-135 425 -17 101 -22 1921 -5 1927 8 2 2776 2 2803 -1z"/>
<path d="M1596 3713 c-184 -38 -344 -169 -417 -342 -68 -163 -59 -348 24 -505
47 -89 155 -193 247 -238 432 -209 905 134 838 608 -46 321 -368 542 -692 477z"/>
<path d="M2933 3449 c-159 -21 -328 -116 -425 -239 -62 -78 -96 -146 -131
-259 -61 -193 -144 -311 -280 -395 -122 -76 -244 -107 -392 -101 -229 10 -427
120 -537 298 -16 26 -32 47 -35 47 -7 0 4 -334 12 -375 16 -85 47 -198 65
-239 10 -25 17 -46 15 -46 -7 0 83 -168 118 -220 188 -282 513 -480 862 -527
110 -15 363 -9 454 10 387 82 685 293 863 612 107 191 167 447 170 719 1 150
-11 220 -58 323 -40 90 -78 145 -141 206 -151 146 -352 213 -560 186z"/>
</g>
</svg>
